<svg width="31" height="31" viewBox="0 0 31 31" fill="none" xmlns="http://www.w3.org/2000/svg">
<rect width="31" height="31" rx="15.5" fill="#0F9B6E"/>
<path d="M9.64361 21.528C9.41028 21.444 9.16061 21.353 8.89461 21.255C8.62861 21.157 8.40228 21.0613 8.21561 20.968C8.02894 20.8747 7.93561 20.8093 7.93561 20.772C7.93561 20.7347 7.97061 20.5737 8.04061 20.289C8.11061 20.0043 8.20394 19.6403 8.32061 19.197C8.43728 18.7537 8.56328 18.2707 8.69861 17.748C8.83394 17.2253 8.97161 16.705 9.11161 16.187C9.25161 15.669 9.38228 15.193 9.50361 14.759C9.62494 14.325 9.72294 13.9773 9.79761 13.716H9.06961L8.43961 12.778L8.52361 12.554H11.4076L12.2196 13.73C12.3316 14.1873 12.4483 14.703 12.5696 15.277C12.6909 15.851 12.8123 16.4343 12.9336 17.027C13.0549 17.6197 13.1669 18.168 13.2696 18.672C13.3723 19.176 13.4563 19.596 13.5216 19.932C13.5869 20.268 13.6243 20.4593 13.6336 20.506C13.6523 20.6273 13.7036 20.7207 13.7876 20.786C13.8716 20.8513 14.0209 20.94 14.2356 21.052L14.0676 21.5C13.7876 21.4067 13.5099 21.2993 13.2346 21.178C12.9593 21.0567 12.7329 20.94 12.5556 20.828C12.3783 20.716 12.2849 20.6367 12.2756 20.59C12.2476 20.2913 12.2149 19.9857 12.1776 19.673C12.1403 19.3603 12.0983 19.05 12.0516 18.742C11.9676 18.7327 11.8836 18.728 11.7996 18.728C11.4636 18.728 11.1136 18.7653 10.7496 18.84C10.3856 18.9147 10.0543 19.05 9.75561 19.246C9.69028 19.5073 9.62261 19.7733 9.55261 20.044C9.48261 20.3147 9.41494 20.5853 9.34961 20.856L9.81161 21.08L9.64361 21.528ZM10.8336 17.594C11.2069 17.594 11.5709 17.6967 11.9256 17.902C11.8136 17.1553 11.6899 16.4297 11.5546 15.725C11.4193 15.0203 11.3003 14.3927 11.1976 13.842C11.0669 14.318 10.9153 14.878 10.7426 15.522C10.5699 16.166 10.3809 16.88 10.1756 17.664C10.3996 17.6173 10.6189 17.594 10.8336 17.594Z" fill="white"/>
<path d="M17.5672 21.458C17.3339 21.3647 17.0702 21.2457 16.7762 21.101C16.4822 20.9563 16.2279 20.8163 16.0132 20.681C15.7986 20.5457 15.6912 20.4453 15.6912 20.38C15.6912 20.2773 15.7216 20.0487 15.7822 19.694C15.8429 19.3393 15.8732 18.9007 15.8732 18.378V16.852C15.8732 16.0773 15.8966 15.445 15.9432 14.955C15.9899 14.465 16.0599 14.052 16.1532 13.716H15.5932L14.9632 12.806L15.0892 12.554H17.7492C17.9079 12.8807 18.0689 13.2797 18.2322 13.751C18.3956 14.2223 18.5519 14.7263 18.7012 15.263C18.8506 15.7997 18.9812 16.3153 19.0932 16.81C19.2612 16.0167 19.4852 15.2537 19.7652 14.521C20.0452 13.7883 20.3672 13.1327 20.7312 12.554H22.0192L22.8172 13.674C22.7519 13.8887 22.7006 14.1477 22.6632 14.451C22.6259 14.7543 22.6072 15.1533 22.6072 15.648V18.574C22.6072 18.994 22.5956 19.3277 22.5722 19.575C22.5489 19.8223 22.5232 20.016 22.4952 20.156C22.4672 20.296 22.4532 20.4173 22.4532 20.52C22.4532 20.5853 22.5092 20.6647 22.6212 20.758C22.7332 20.8513 22.8826 20.954 23.0692 21.066L22.8872 21.458C22.6539 21.3647 22.3902 21.2457 22.0962 21.101C21.8022 20.9563 21.5479 20.8163 21.3332 20.681C21.1186 20.5457 21.0112 20.4453 21.0112 20.38C21.0112 20.2493 21.0416 20.0323 21.1022 19.729C21.1629 19.4257 21.1932 18.9753 21.1932 18.378V16.25C21.1932 15.802 21.2049 15.3843 21.2282 14.997C21.2516 14.6097 21.2912 14.2667 21.3472 13.968C21.1419 14.4347 20.9459 14.976 20.7592 15.592C20.5726 16.208 20.4022 16.8427 20.2482 17.496C20.0942 18.1493 19.9752 18.7747 19.8912 19.372L19.6532 19.512L18.5332 18.896C18.4679 18.364 18.3746 17.8017 18.2532 17.209C18.1319 16.6163 17.9966 16.0447 17.8472 15.494C17.6979 14.9433 17.5486 14.4487 17.3992 14.01C17.3712 14.2993 17.3479 14.6307 17.3292 15.004C17.3106 15.3773 17.2989 15.7483 17.2942 16.117C17.2896 16.4857 17.2872 16.81 17.2872 17.09V18.574C17.2872 18.994 17.2756 19.3277 17.2522 19.575C17.2289 19.8223 17.2032 20.016 17.1752 20.156C17.1472 20.296 17.1332 20.4173 17.1332 20.52C17.1332 20.5853 17.1892 20.6647 17.3012 20.758C17.4132 20.8513 17.5626 20.954 17.7492 21.066L17.5672 21.458Z" fill="white"/>
</svg>
